<svg width="50" height="50" viewBox="0 0 50 50" fill="none" xmlns="http://www.w3.org/2000/svg">
<path d="M41.0568 49.144C30.3631 50.2853 19.6369 50.2853 8.94318 49.144C4.67911 48.6889 1.31111 45.3209 0.856018 41.0564C-0.285339 30.3627 -0.285339 19.6369 0.856018 8.94318C1.31111 4.67911 4.67911 1.31111 8.94318 0.856018C19.6369 -0.285339 30.3627 -0.285339 41.0564 0.856018C45.3209 1.31111 48.6889 4.67911 49.144 8.94318C50.2853 19.6369 50.2853 30.3627 49.144 41.0564C48.6889 45.3209 45.3213 48.6889 41.0568 49.144Z" fill="url(#paint0_linear)"/>
<path d="M46.4251 10.7513C46.0215 6.96754 43.033 3.97872 39.2489 3.57475C29.7594 2.56232 20.2418 2.56232 10.7523 3.57475C6.96851 3.97872 3.9797 6.96754 3.57572 10.7513C2.5633 20.2408 2.5633 29.7584 3.57572 39.2475C3.9797 43.0317 6.96851 46.0205 10.7523 46.4241C20.2418 47.4369 29.7594 47.4369 39.2485 46.4241C43.0327 46.0205 46.0215 43.0317 46.4251 39.2475C47.4379 29.7584 47.4379 20.2408 46.4251 10.7513Z" fill="url(#paint1_linear)"/>
<path d="M0.75 40.0195C0.784332 40.3651 0.819809 40.7108 0.856812 41.0564C1.3119 45.3204 4.6799 48.6884 8.94435 49.1435C19.6381 50.2849 30.3639 50.2849 41.0576 49.1435C45.3221 48.6884 48.6897 45.3204 49.1448 41.0564C49.1818 40.7108 49.2173 40.3651 49.252 40.0195H0.75Z" fill="url(#paint2_linear)"/>
<path d="M33.6151 8.32715C29.2587 8.32715 25.7274 11.8588 25.7274 16.2152V22.107H21.4824V29.4018L25.7274 33.2039V49.9978C30.8399 49.973 35.952 49.6888 41.0572 49.144C45.3216 48.6889 48.6892 45.3209 49.1443 41.0565C49.9935 33.0998 50.2105 25.1255 49.7959 17.1597L40.9633 8.32715H33.6151Z" fill="url(#paint3_linear)"/>
<path d="M25.7274 49.9978C28.6407 49.9836 31.5536 49.8848 34.4654 49.7017V29.4018H40.2629L40.9633 22.107H34.4654V17.4748C34.4654 16.4517 35.2947 15.6224 36.3178 15.6224H40.9633V8.32715H33.6151C29.2587 8.32715 25.7274 11.8588 25.7274 16.2152V22.107H21.4824V29.4018H25.7274V49.9978Z" fill="white"/>
<defs>
<linearGradient id="paint0_linear" x1="16.601" y1="7.02991" x2="29.2474" y2="34.0874" gradientUnits="userSpaceOnUse">
<stop stop-color="#3457A0"/>
<stop offset="1" stop-color="#3B5998"/>
</linearGradient>
<linearGradient id="paint1_linear" x1="34.4853" y1="31.5165" x2="-9.22285" y2="1.48479" gradientUnits="userSpaceOnUse">
<stop stop-color="#3457A0" stop-opacity="0"/>
<stop offset="1" stop-color="#1F3F77"/>
</linearGradient>
<linearGradient id="paint2_linear" x1="25.0008" y1="41.784" x2="25.0008" y2="48.55" gradientUnits="userSpaceOnUse">
<stop stop-color="#3457A0" stop-opacity="0"/>
<stop offset="1" stop-color="#1F3F77"/>
</linearGradient>
<linearGradient id="paint3_linear" x1="57.4005" y1="41.292" x2="22.6964" y2="23.7929" gradientUnits="userSpaceOnUse">
<stop stop-color="#3457A0" stop-opacity="0"/>
<stop offset="0.3251" stop-color="#2A4C8D" stop-opacity="0.32549"/>
<stop offset="0.7045" stop-color="#22427D" stop-opacity="0.705882"/>
<stop offset="1" stop-color="#1F3F77"/>
</linearGradient>
</defs>
</svg>
